<?xml version="1.0" encoding="UTF-8"?>
<svg id="Layer_2" data-name="Layer 2" xmlns="http://www.w3.org/2000/svg" viewBox="0 0 353.61 352.71">
    <defs>
    <style>
      .cls-1 {
        fill:rgb(0, 255, 106);
      }
    </style>
  </defs>
  <g id="Layer_1-2" data-name="Layer 1">
    <path d="M351.97,71.17C346.82,31.5,313.93,3.36,274.54,1.14c-64.14-3.61-131.65,2.77-196.14.04C35.22,3.82,3.31,36.27.88,79.36c-2.57,45.53,1.31,94.2.87,139.92,4.43,33.62,30.11,61.52,63.46,67.91l.25,53.27c2.39,9.28,11.64,14.41,20.77,11.4l95.63-63.06c32.19-2.31,67.45,2.51,99.28-.28,40.65-3.56,69.44-38.46,71.61-78.09,2.49-45.38-1.32-93.68-.79-139.25ZM243.75,192.73H109.89c-16.87-3.6-17.3-26.89-.64-31.19l134.49-.11c17.19,3.71,17.13,27.49,0,31.31ZM274.51,129.17H79.14c-18.62-3.28-18.76-28.91.2-31.99l193.67-.19c20.19,2.04,20.63,28.68,1.51,32.18Z"/>
  </g>

</svg>
